<svg aria-hidden="true" style="position:absolute;width:0;height:0;overflow:hidden" xmlns="http://www.w3.org/2000/svg">
  <defs>
   <symbol id="button-icon" viewBox="0 0 25 32">
      <path fill="none" stroke="#fff" style="stroke: var(--color1, #fff)" stroke-linejoin="miter" stroke-linecap="butt" stroke-miterlimit="4" stroke-width="1.7778" d="M1.778 1.778l21.333 14.222-21.333 14.222"></path>
   </symbol>
   <symbol id="icon-shopping-cart" viewBox="0 0 32 32">
      <path d="M4.905 3.765H0V0h8.271l.845 7.529h21.002v11.178L7.096 23.283 4.906 3.764zM29.176 32a2.824 2.824 0 1 1 0-5.648 2.824 2.824 0 0 1 0 5.648zm-18.823 0a2.824 2.824 0 1 1 0-5.648 2.824 2.824 0 0 1 0 5.648z"/>
   </symbol>
   <symbol id="footer-icon-1" viewBox="0 0 32 32">
      <path fill="#002987" style="fill:var(--color1, #002987)" d="M26.805 8.268c.054-.44.083-.889.083-1.344C26.888 3.1 23.788 0 19.964 0H8.393c-.728 0-1.349.526-1.47 1.243L2.659 26.585a1.49 1.49 0 0 0 1.47 1.738h4.232c.728 0 1.361-.525 1.482-1.243l.02-.118-.59 3.505a1.314 1.314 0 0 0 1.296 1.532h3.702c.642 0 1.189-.463 1.296-1.096l1.052-6.251a2.237 2.237 0 0 1 2.207-1.867h.973a9.566 9.566 0 0 0 9.566-9.566 6.068 6.068 0 0 0-2.558-4.953z"/>
      <path fill="#0085cc" style="fill:var(--color2, #0085cc)" d="M26.805 8.267c-.662 5.386-5.253 9.557-10.818 9.557h-3.229a1.62 1.62 0 0 0-1.556 1.172l-1.93 11.472A1.314 1.314 0 0 0 10.568 32h3.702c.642 0 1.189-.463 1.296-1.096l1.052-6.251a2.237 2.237 0 0 1 2.207-1.867h.973a9.566 9.566 0 0 0 9.566-9.566 6.068 6.068 0 0 0-2.558-4.953z"/>
      <path fill="#00186a" style="fill:var(--color3, #00186a)" d="M12.758 17.825h3.229c5.565 0 10.156-4.171 10.818-9.557a6.043 6.043 0 0 0-3.518-1.124h-8.428c-.96 0-1.779.693-1.938 1.639l-1.718 10.213a1.62 1.62 0 0 1 1.556-1.172z"/>
   </symbol>
   <symbol id="footer-icon-2" viewBox="0 0 76 32">
      <path fill="#6772e5" style="fill:var(--color4, #6772e5)" d="M76.097 16.527c0-5.397-2.614-9.655-7.61-9.655-5.017 0-8.052 4.258-8.052 9.613 0 6.345 3.584 9.549 8.727 9.549 2.508 0 4.405-.569 5.839-1.37v-4.216c-1.434.717-3.078 1.159-5.165 1.159-2.045 0-3.857-.717-4.089-3.204h10.308c0-.274.042-1.37.042-1.876zm-10.413-2.002c0-2.382 1.455-3.373 2.783-3.373 1.286 0 2.656.991 2.656 3.373h-5.439zM52.298 6.873c-2.066 0-3.394.97-4.131 1.644l-.274-1.307h-4.638v24.58l5.27-1.117.021-5.966c.759.548 1.876 1.328 3.731 1.328 3.773 0 7.209-3.036 7.209-9.718-.021-6.113-3.499-9.444-7.188-9.444zm-1.265 14.524c-1.244 0-1.981-.443-2.487-.991l-.021-7.821c.548-.611 1.307-1.033 2.508-1.033 1.918 0 3.246 2.15 3.246 4.912 0 2.825-1.307 4.933-3.246 4.933zM41.295 4.491V.212l-5.291 1.117v4.3l5.291-1.138zM41.295 7.231h-5.291v18.445h5.291V7.231zM30.333 8.792l-.337-1.56h-4.553v18.445h5.27V13.176c1.244-1.623 3.352-1.328 4.005-1.096V7.232c-.674-.253-3.141-.717-4.384 1.56zM19.794 2.656l-5.143 1.096-.021 16.885c0 3.12 2.34 5.418 5.46 5.418 1.729 0 2.993-.316 3.689-.696V21.08c-.675.274-4.005 1.244-4.005-1.876V11.72h4.005V7.23h-4.005l.021-4.574zM5.544 12.585c0-.822.675-1.138 1.792-1.138 1.602 0 3.626.485 5.228 1.349V7.842c-1.75-.696-3.478-.97-5.228-.97-4.279 0-7.125 2.235-7.125 5.966 0 5.818 8.01 4.891 8.01 7.399 0 .97-.843 1.286-2.024 1.286-1.75 0-3.984-.717-5.755-1.686v5.017a14.614 14.614 0 0 0 5.755 1.201c4.385 0 7.399-2.171 7.399-5.945-.021-6.282-8.052-5.165-8.052-7.526z"/>
   </symbol>
   <symbol id="footer-icon-4" viewBox="0 0 49 32">
      <path fill="#ff5f00" style="fill:var(--color5, #ff5f00)" d="M31.111 5.575H18.124v20.846h12.987V5.575z"/>
      <path fill="#eb001b" style="fill:var(--color6, #eb001b)" d="M19.461 16c-.002-2.007.461-3.989 1.354-5.794s2.191-3.388 3.798-4.627c-1.99-1.537-4.38-2.493-6.896-2.758s-5.058.171-7.335 1.258c-2.276 1.087-4.196 2.782-5.538 4.89s-2.055 4.546-2.055 7.033.712 4.925 2.055 7.033 3.262 3.803 5.538 4.89c2.276 1.087 4.818 1.523 7.335 1.258s4.906-1.221 6.896-2.758c-1.607-1.24-2.906-2.823-3.799-4.629S19.459 18.008 19.461 16z"/>
      <path fill="#f79e1b" style="fill:var(--color7, #f79e1b)" d="M45.15 24.215v-.427h.187V23.7h-.446v.088h.176v.427h.082zm.866 0v-.516h-.135l-.158.368-.157-.368h-.135v.516h.097v-.39l.146.335h.101l.146-.335v.39h.094zM46.439 16c0 2.488-.712 4.925-2.055 7.033s-3.262 3.803-5.539 4.89-4.819 1.523-7.335 1.257a13.627 13.627 0 0 1-6.896-2.759c1.606-1.241 2.905-2.823 3.797-4.629s1.357-3.787 1.357-5.794c0-2.007-.464-3.989-1.357-5.794s-2.191-3.388-3.797-4.629c1.99-1.537 4.38-2.494 6.896-2.759s5.059.17 7.335 1.257 4.196 2.782 5.539 4.89a13.089 13.089 0 0 1 2.055 7.033V16z"/>
   </symbol>
   <symbol id="footer-icon-5" viewBox="0 0 85 32">
      <path fill="#2557d6" style="fill:var(--color8, #2557d6)" d="m62.51 4.549-1.639 3.825h3.287L62.51 4.549zm-18.912 2.37c.309-.155.491-.493.491-.912 0-.411-.191-.709-.5-.848-.281-.155-.714-.173-1.129-.173h-2.932v2.131h2.893c.463 0 .85-.006 1.178-.198zM6.026 4.549l-1.62 3.825h3.251l-1.63-3.825zm75.443 24.507h-4.598v-2.058h4.58c.454 0 .772-.057.964-.238a.828.828 0 0 0 .281-.626c0-.28-.115-.502-.291-.635-.172-.146-.424-.213-.839-.213-2.236-.073-5.025.067-5.025-2.971 0-1.392.918-2.857 3.416-2.857H84.7v-1.91h-4.407c-1.33 0-2.296.307-2.98.784v-.784h-6.518c-1.042 0-2.266.249-2.844.784v-.784h-11.64v.784c-.926-.644-2.49-.784-3.211-.784h-7.678v.784c-.733-.684-2.363-.784-3.356-.784h-8.593l-1.966 2.05-1.842-2.05H16.829v13.394h12.594l2.026-2.083 1.909 2.083 7.763.007v-3.151h.763c1.03.016 2.245-.024 3.317-.471v3.614h6.403V27.45h.309c.394 0 .433.016.433.395v3.095h19.452c1.235 0 2.526-.304 3.241-.857v.857h6.17c1.284 0 2.538-.173 3.492-.617v-2.495c-.578.815-1.706 1.228-3.231 1.228v-.001zm-39.484-3.163h-2.971v3.219h-4.628l-2.932-3.177-3.047 3.177h-9.432v-9.598h9.577l2.93 3.146 3.029-3.146h7.609c1.89 0 4.013.504 4.013 3.162 0 2.666-2.065 3.217-4.146 3.217zm14.287-.435c.336.469.385.906.395 1.752v1.903h-2.391v-1.201c0-.578.058-1.433-.385-1.879-.347-.344-.878-.426-1.747-.426h-2.545v3.505h-2.392v-9.598h5.497c1.206 0 2.084.052 2.865.453.751.437 1.224 1.037 1.224 2.131a2.694 2.694 0 0 1-1.688 2.554c.53.188.963.526 1.166.806zm9.836-3.959h-5.576v1.745h5.44v1.958h-5.44v1.91l5.576.008v1.992h-7.947v-9.598h7.947v1.985zm6.119 7.613h-4.638v-2.058h4.619c.452 0 .772-.058.973-.238a.835.835 0 0 0 .281-.626.812.812 0 0 0-.291-.635c-.182-.146-.434-.213-.848-.213-2.227-.074-5.016.066-5.016-2.971 0-1.392.908-2.858 3.404-2.858h4.774v2.043h-4.368c-.433 0-.714.016-.954.174-.261.155-.358.386-.358.69 0 .362.222.609.521.715.251.084.521.109.927.109l1.282.034c1.292.03 2.18.246 2.719.772.463.462.712 1.046.712 2.034 0 2.065-1.339 3.029-3.741 3.029zm-18.468-7.458c-.288-.165-.712-.173-1.136-.173h-2.932v2.155h2.893c.463 0 .857-.016 1.175-.198.309-.18.493-.511.493-.921s-.185-.708-.493-.863zm26.605-.174c-.433 0-.721.016-.964.174-.251.156-.348.386-.348.691 0 .362.212.608.521.715.251.084.521.109.917.109l1.291.033c1.302.031 2.172.247 2.702.773.097.073.155.155.221.237v-2.731h-4.34zm-38.297 0h-3.105v2.445h3.077c.915 0 1.484-.437 1.484-1.268-.001-.839-.597-1.177-1.457-1.177zm-20.721 0v1.745h5.227v1.958h-5.227v1.909H27.2l2.72-2.816-2.604-2.797h-5.97zm15.287 6.713v-7.695l-3.656 3.786 3.656 3.909zM21.546 12.782v1.654H41.44l-.009-3.499h.385c.27.009.348.033.348.462v3.037h10.289v-.815c.83.428 2.121.815 3.819.815h4.329l.926-2.131h2.054l.906 2.131h8.341v-2.025l1.263 2.024h6.685V1.052h-6.615v1.581l-.926-1.581h-6.788v1.581l-.851-1.581h-9.169c-1.535 0-2.884.206-3.974.781v-.781h-6.328v.781c-.693-.593-1.639-.781-2.689-.781H20.319l-1.551 3.457-1.593-3.457H9.894v1.581l-.8-1.581h-6.21L0 7.415v5.09l4.264-9.596h3.538l4.05 9.085V2.909h3.887l3.116 6.51 2.863-6.51h3.965v9.596h-2.441l-.009-7.515-3.453 7.515h-2.091l-3.462-7.522v7.522H9.384l-.915-2.14H3.511l-.924 2.14H.001v1.93H4.07l.917-2.131h2.054l.915 2.131h8.005v-1.63l.714 1.636h4.155l.715-1.661h.001zm31.349-8.753c.769-.766 1.975-1.119 3.616-1.119h2.305v2.056h-2.257c-.869 0-1.36.124-1.832.569-.406.404-.685 1.168-.685 2.173 0 1.028.212 1.769.655 2.254.367.38 1.033.495 1.66.495h1.07l3.356-7.546h3.568l4.032 9.076V2.911h3.626l4.186 6.683V2.911h2.439v9.596H75.26l-4.513-7.202v7.202h-4.85l-.927-2.14h-4.947l-.899 2.14h-2.787c-1.157 0-2.623-.246-3.453-1.061-.837-.815-1.272-1.918-1.272-3.663 0-1.423.26-2.724 1.284-3.752zM47.997 2.91h2.43v9.596h-2.43V2.91zm-10.955 0h5.477c1.217 0 2.114.031 2.884.46.753.429 1.205 1.054 1.205 2.125 0 1.53-1.06 2.32-1.678 2.558.521.191.966.529 1.178.808.336.477.394.904.394 1.761v1.885h-2.401l-.009-1.21c0-.578.057-1.408-.376-1.869-.348-.337-.878-.411-1.736-.411h-2.556v3.49h-2.381V2.911zm-9.599 0h7.955v1.998h-5.573v1.73h5.439v1.967h-5.439v1.916h5.573v1.985h-7.955V2.91z"/>
   </symbol>
   <symbol id="icon-facebook" viewBox="0 0 32 32">
      <path d="M21.329 5.313h2.921V.225C23.746.156 22.013 0 19.994 0c-4.212 0-7.097 2.649-7.097 7.519V12H8.249v5.688h4.648V32h5.699V17.689h4.46l.708-5.688h-5.169V8.082c.001-1.644.444-2.769 2.735-2.769z"/>
   </symbol>
   <symbol id="icon-instagram" viewBox="0 0 32 32">
      <path d="M31.969 9.408c-.075-1.7-.35-2.869-.744-3.882a7.806 7.806 0 0 0-1.851-2.838A7.867 7.867 0 0 0 26.542.844C25.523.45 24.36.175 22.66.1 20.947.019 20.403 0 16.059 0s-4.888.019-6.595.094c-1.7.075-2.869.35-3.882.744a7.803 7.803 0 0 0-2.838 1.85A7.867 7.867 0 0 0 .9 5.52C.506 6.539.231 7.702.156 9.402c-.081 1.713-.1 2.257-.1 6.601s.019 4.888.094 6.595c.075 1.7.35 2.869.744 3.882a7.895 7.895 0 0 0 1.85 2.838 7.867 7.867 0 0 0 2.832 1.844c1.019.394 2.182.669 3.882.744 1.706.075 2.25.094 6.595.094s4.888-.019 6.595-.094c1.7-.075 2.869-.35 3.882-.744a8.184 8.184 0 0 0 4.682-4.682c.394-1.019.669-2.182.744-3.882.075-1.707.094-2.251.094-6.595s-.006-4.888-.081-6.595zm-2.882 13.065c-.069 1.563-.331 2.407-.55 2.969a5.31 5.31 0 0 1-3.038 3.038c-.563.219-1.413.481-2.969.55-1.688.075-2.194.094-6.464.094s-4.782-.019-6.464-.094c-1.563-.069-2.407-.331-2.969-.55a4.926 4.926 0 0 1-1.838-1.194 4.974 4.974 0 0 1-1.194-1.838c-.219-.563-.481-1.413-.55-2.969-.075-1.688-.094-2.194-.094-6.464s.019-4.782.094-6.464c.069-1.563.331-2.407.55-2.969a4.868 4.868 0 0 1 1.2-1.838A4.974 4.974 0 0 1 6.639 3.55c.563-.219 1.413-.481 2.969-.55 1.688-.075 2.194-.094 6.464-.094 4.276 0 4.782.019 6.464.094 1.563.069 2.407.331 2.969.55a4.914 4.914 0 0 1 1.838 1.194 4.974 4.974 0 0 1 1.194 1.838c.219.563.481 1.413.55 2.969.075 1.688.094 2.194.094 6.464s-.019 4.77-.094 6.458z"/>
      <path d="M16.059 7.783c-4.538 0-8.22 3.682-8.22 8.22s3.682 8.22 8.22 8.22c4.539 0 8.22-3.682 8.22-8.22s-3.682-8.22-8.22-8.22zm0 13.552a5.333 5.333 0 0 1 0-10.664 5.333 5.333 0 0 1 0 10.664zM26.524 7.458a1.919 1.919 0 1 1-3.838 0 1.919 1.919 0 0 1 3.838 0z"/>
   </symbol>
   <symbol id="icon-linkedin" viewBox="0 0 32 32">
      <path d="M31.992 32v-.001H32V20.263c0-5.741-1.236-10.164-7.948-10.164-3.227 0-5.392 1.771-6.276 3.449h-.093v-2.913h-6.364v21.364h6.627V21.42c0-2.785.528-5.479 3.977-5.479 3.399 0 3.449 3.179 3.449 5.657v10.401h6.62zM.528 10.636h6.635V32H.528V10.636zM3.843 0C1.722 0 0 1.721 0 3.843s1.721 3.879 3.843 3.879c2.121 0 3.843-1.757 3.843-3.879A3.846 3.846 0 0 0 3.843 0z"/>
   </symbol>
   <symbol id="icon-twitter" viewBox="0 0 32 32">
      <path d="M32 6.078c-1.19.522-2.458.868-3.78 1.036a6.523 6.523 0 0 0 2.886-3.626 13.11 13.11 0 0 1-4.16 1.588A6.574 6.574 0 0 0 22.154 3c-3.632 0-6.556 2.948-6.556 6.562 0 .52.044 1.02.152 1.496-5.454-.266-10.28-2.88-13.522-6.862a6.605 6.605 0 0 0-.898 3.316 6.57 6.57 0 0 0 2.914 5.452 6.479 6.479 0 0 1-2.964-.808v.072c0 3.188 2.274 5.836 5.256 6.446a6.548 6.548 0 0 1-1.72.216 5.8 5.8 0 0 1-1.242-.112c.85 2.598 3.262 4.508 6.13 4.57a13.182 13.182 0 0 1-8.134 2.798c-.538 0-1.054-.024-1.57-.09A18.469 18.469 0 0 0 10.064 29c12.072 0 18.672-10 18.672-18.668 0-.29-.01-.57-.024-.848A13.087 13.087 0 0 0 32 6.078z"/>
   </symbol>
  </defs>
</svg>